HIERARCHY
ROOT joint_Root
{
	OFFSET 0.0 0.0 0.0
	CHANNELS 6 Xposition Yposition Zposition Zrotation Xrotation Yrotation 
	JOINT Hips
	{
		OFFSET -17.1583 93.1646 452.98
		CHANNELS 6 Xposition Yposition Zposition Zrotation Xrotation Yrotation 
		JOINT Spine
		{
			OFFSET 15.7357 0.0 0.0
			CHANNELS 6 Xposition Yposition Zposition Zrotation Xrotation Yrotation 
			JOINT Chest
			{
				OFFSET 8.98455 -0.406207 0.0
				CHANNELS 6 Xposition Yposition Zposition Zrotation Xrotation Yrotation 
				JOINT Neck
				{
					OFFSET 16.3773 0.0 0.0
					CHANNELS 6 Xposition Yposition Zposition Zrotation Xrotation Yrotation 
					JOINT Head
					{
						OFFSET 6.45672 0.0 0.0
						CHANNELS 6 Xposition Yposition Zposition Zrotation Xrotation Yrotation 
						End Site
						{
							OFFSET 0.0 0.0 0.0
						}
					}
				}
				JOINT Shoulder_L
				{
					OFFSET 12.9942 -0.242716 4.98039
					CHANNELS 6 Xposition Yposition Zposition Zrotation Xrotation Yrotation 
					JOINT UpperArm_L
					{
						OFFSET 5.34809 0.0 0.0
						CHANNELS 6 Xposition Yposition Zposition Zrotation Xrotation Yrotation 
						JOINT LowerArm_L
						{
							OFFSET 24.3286 1.87007e-05 0.0
							CHANNELS 6 Xposition Yposition Zposition Zrotation Xrotation Yrotation 
							JOINT Hand_L
							{
								OFFSET 22.2916 0.0 0.0
								CHANNELS 6 Xposition Yposition Zposition Zrotation Xrotation Yrotation 
								End Site
								{
									OFFSET 0.0 0.0 0.0
								}
							}
						}
					}
				}
				JOINT Shoulder_R
				{
					OFFSET 12.9945 -0.242716 -4.98039
					CHANNELS 6 Xposition Yposition Zposition Zrotation Xrotation Yrotation 
					JOINT UpperArm_R
					{
						OFFSET -5.34813 0.0 0.0
						CHANNELS 6 Xposition Yposition Zposition Zrotation Xrotation Yrotation 
						JOINT LowerArm_R
						{
							OFFSET -24.3289 0.000322201 0.0
							CHANNELS 6 Xposition Yposition Zposition Zrotation Xrotation Yrotation 
							JOINT Hand_R
							{
								OFFSET -22.2915 -0.000108084 0.0
								CHANNELS 6 Xposition Yposition Zposition Zrotation Xrotation Yrotation 
								End Site
								{
									OFFSET 0.0 0.0 0.0
								}
							}
						}
					}
				}
			}
		}
		JOINT UpperLeg_L
		{
			OFFSET -2.19248 -6.46944 0.0
			CHANNELS 6 Xposition Yposition Zposition Zrotation Xrotation Yrotation 
			JOINT LowerLeg_L
			{
				OFFSET 39.0811 0.0 -1.23785e-05
				CHANNELS 6 Xposition Yposition Zposition Zrotation Xrotation Yrotation 
				JOINT Foot_L
				{
					OFFSET 40.9854 0.0 -1.26872e-05
					CHANNELS 6 Xposition Yposition Zposition Zrotation Xrotation Yrotation 
					JOINT Toes_L
					{
						OFFSET 11.7543 0.0 0.0
						CHANNELS 6 Xposition Yposition Zposition Zrotation Xrotation Yrotation 
						End Site
						{
							OFFSET 0.0 0.0 0.0
						}
					}
				}
			}
		}
		JOINT UpperLeg_R
		{
			OFFSET -2.19251 6.46944 0.0
			CHANNELS 6 Xposition Yposition Zposition Zrotation Xrotation Yrotation 
			JOINT LowerLeg_R
			{
				OFFSET -39.0811 -0.00228153 -0.0401928
				CHANNELS 6 Xposition Yposition Zposition Zrotation Xrotation Yrotation 
				JOINT Foot_R
				{
					OFFSET -40.9854 0.0 0.0
					CHANNELS 6 Xposition Yposition Zposition Zrotation Xrotation Yrotation 
					JOINT Toes_R
					{
						OFFSET -11.7543 0.0 0.0
						CHANNELS 6 Xposition Yposition Zposition Zrotation Xrotation Yrotation 
						End Site
						{
							OFFSET 0.0 0.0 0.0
						}
					}
				}
			}
		}
	}
}
MOTION
Frames:	6
Frame Time:	0.0333333
0.000000 0.000000 0.000000 0.000000 0.000000 -0.000000 -0.193443 92.961600 -0.809561 86.967400 -1.781830 0.869792 15.735700 0.000005 -0.000001 79.822600 87.063700 -77.645600 8.984550 -0.406207 -0.000000 -1.959090 -1.222060 4.332660 16.377300 -0.000001 -0.000001 4.644060 3.817830 -0.147746 6.456720 -0.000001 -0.000000 2.985270 5.700650 -5.536860 12.994200 -0.242716 4.980390 -92.441900 7.919320 -72.801900 5.348090 -0.000007 -0.000001 -74.133000 29.725400 0.253808 24.328600 0.000019 0.000005 12.646200 27.742800 -25.734000 22.291600 -0.000001 0.000005 -3.393170 5.039010 6.478530 12.994500 -0.242716 -4.980390 88.905800 3.637510 -73.245200 -5.348130 -0.000001 -0.000004 -72.143300 18.335500 -3.584310 -24.328900 0.000322 -0.000009 1.417600 3.687010 -21.062400 -22.291500 -0.000108 -0.000004 4.770060 5.276890 0.711299 -2.192480 -6.469440 -0.000000 -176.824000 -1.827520 -2.897220 39.081100 -0.000007 -0.000012 0.191193 -0.536528 19.613900 40.985400 -0.000006 -0.000013 2.941630 8.780510 -71.146500 11.754300 -0.000000 0.000003 -0.000090 0.169125 -9.717120 -2.192510 6.469440 -0.000001 -175.664000 5.593220 -178.645000 -39.081100 -0.002282 -0.040193 0.028473 -0.111952 12.655600 -40.985400 0.000008 0.000006 -0.922454 4.679240 -68.324800 -11.754300 -0.000006 -0.000006 -0.011722 0.283749 -5.041730
0.000000 0.000000 0.000000 0.000000 0.000000 -0.000000 -0.213044 92.970000 -0.819764 86.957300 -1.682370 0.833246 15.735700 0.000005 -0.000001 79.762200 87.049200 -77.566600 8.984550 -0.406207 -0.000000 -1.931110 -1.234340 4.369740 16.377300 -0.000001 -0.000001 4.535230 3.757950 -0.047996 6.456720 -0.000001 -0.000000 2.789020 5.637320 -5.394950 12.994200 -0.242716 4.980390 -92.440800 7.918620 -72.808000 5.348090 -0.000007 -0.000001 -74.191500 29.669600 0.301234 24.328600 0.000019 0.000005 12.758700 27.928000 -25.802100 22.291600 -0.000001 0.000005 -3.373770 5.042010 6.412690 12.994500 -0.242716 -4.980390 88.906800 3.618830 -73.179200 -5.348130 -0.000001 -0.000004 -71.994800 17.263600 -3.298330 -24.328900 0.000322 -0.000009 1.512740 3.668560 -22.441700 -22.291500 -0.000108 -0.000004 4.424430 5.272940 0.818782 -2.192480 -6.469440 -0.000000 -176.799000 -1.802800 -2.935510 39.081100 -0.000007 -0.000012 0.191912 -0.539415 19.584800 40.985400 -0.000006 -0.000013 2.932680 8.835160 -71.165400 11.754300 -0.000000 0.000003 -0.000169 0.170417 -9.664630 -2.192510 6.469440 -0.000001 -175.645000 5.622500 -178.661000 -39.081100 -0.002282 -0.040193 0.026899 -0.105517 12.589000 -40.985400 0.000008 0.000006 -1.059700 4.623480 -68.274000 -11.754300 -0.000006 -0.000006 -0.011813 0.284390 -5.015480
0.000000 0.000000 0.000000 0.000000 0.000000 -0.000000 -0.235731 92.967000 -0.835821 86.937500 -1.591650 0.722758 15.735700 0.000005 -0.000001 79.317100 87.042400 -77.089000 8.984550 -0.406207 -0.000000 -1.924630 -1.284570 4.434110 16.377300 -0.000001 -0.000001 4.360620 3.671280 0.089177 6.456720 -0.000001 -0.000000 2.586060 5.604030 -5.254900 12.994200 -0.242716 4.980390 -92.441700 7.907710 -72.779900 5.348090 -0.000007 -0.000001 -74.260400 29.680400 0.344871 24.328600 0.000019 0.000005 12.732100 27.844500 -25.815500 22.291600 -0.000001 0.000005 -3.444120 5.041070 6.433560 12.994500 -0.242716 -4.980390 88.924600 3.550090 -73.134800 -5.348130 -0.000001 -0.000004 -71.827300 15.966900 -2.890420 -24.328900 0.000322 -0.000009 1.710670 3.747680 -24.569100 -22.291500 -0.000108 -0.000004 3.955880 5.257790 1.226910 -2.192480 -6.469440 -0.000000 -176.773000 -1.727510 -3.098820 39.081100 -0.000007 -0.000012 0.195107 -0.546524 19.646800 40.985400 -0.000006 -0.000013 2.929410 8.859630 -71.172000 11.754300 -0.000000 0.000003 0.000098 0.165963 -9.845510 -2.192510 6.469440 -0.000001 -175.582000 5.655990 -178.776000 -39.081100 -0.002282 -0.040193 0.027341 -0.107634 12.573500 -40.985400 0.000008 0.000006 -0.968914 4.580040 -68.280100 -11.754300 -0.000006 -0.000006 -0.011815 0.284401 -5.015020
0.000000 0.000000 0.000000 0.000000 0.000000 -0.000000 -0.258871 92.971100 -0.848147 86.929500 -1.497980 0.663566 15.735700 0.000005 -0.000001 79.045100 87.016800 -76.783600 8.984550 -0.406207 -0.000000 -1.878450 -1.323760 4.500620 16.377300 -0.000001 -0.000001 4.252260 3.583030 0.291192 6.456720 -0.000001 -0.000000 2.195800 5.591620 -5.090500 12.994200 -0.242716 4.980390 -92.445600 7.897360 -72.732200 5.348090 -0.000007 -0.000001 -74.309100 29.732400 0.379609 24.328600 0.000019 0.000005 12.780500 27.926600 -25.842800 22.291600 -0.000001 0.000005 -3.388370 5.037820 6.504330 12.994500 -0.242716 -4.980390 88.942600 3.464160 -73.013700 -5.348130 -0.000001 -0.000004 -71.564200 14.426800 -2.337840 -24.328900 0.000322 -0.000009 2.202750 4.227740 -27.559300 -22.291500 -0.000108 -0.000004 3.339160 5.242300 1.636120 -2.192480 -6.469440 -0.000000 -176.750000 -1.594400 -3.184880 39.081100 -0.000007 -0.000012 0.195573 -0.547369 19.662000 40.985400 -0.000006 -0.000013 2.897330 8.830340 -71.225900 11.754300 -0.000000 0.000003 -0.000127 0.169741 -9.692110 -2.192510 6.469440 -0.000001 -175.554000 5.670880 -178.819000 -39.081100 -0.002282 -0.040193 0.026680 -0.105069 12.527200 -40.985400 0.000008 0.000006 -1.046630 4.513910 -68.245400 -11.754300 -0.000006 -0.000006 -0.011645 0.283209 -5.063820
0.000000 0.000000 0.000000 0.000000 0.000000 -0.000000 -0.284922 92.965200 -0.853191 86.918700 -1.425170 0.631371 15.735700 0.000005 -0.000001 78.884900 86.965900 -76.577300 8.984550 -0.406207 -0.000000 -1.780200 -1.361680 4.593080 16.377300 -0.000001 -0.000001 4.119400 3.478210 0.464416 6.456720 -0.000001 -0.000000 1.730400 5.554730 -4.834630 12.994200 -0.242716 4.980390 -92.450700 7.917530 -72.739500 5.348090 -0.000007 -0.000001 -74.334800 29.705400 0.423533 24.328600 0.000019 0.000005 12.796900 27.875600 -25.910400 22.291600 -0.000001 0.000005 -3.232260 5.040860 6.438050 12.994500 -0.242716 -4.980390 88.956400 3.405640 -72.952200 -5.348130 -0.000001 -0.000004 -71.254000 12.105100 -1.583420 -24.328900 0.000322 -0.000009 3.028030 4.941050 -31.561800 -22.291500 -0.000108 -0.000004 2.331300 5.211640 2.427520 -2.192480 -6.469440 -0.000000 -176.723000 -1.534010 -3.270540 39.081100 -0.000007 -0.000012 0.197495 -0.550502 19.736000 40.985400 -0.000006 -0.000013 2.887030 8.847320 -71.250500 11.754300 -0.000000 0.000003 -0.000124 0.169694 -9.694020 -2.192510 6.469440 -0.000001 -175.510000 5.724850 -178.870000 -39.081100 -0.002282 -0.040193 0.027398 -0.108104 12.549300 -40.985400 0.000008 0.000006 -0.980382 4.474070 -68.247000 -11.754300 -0.000006 -0.000006 -0.011554 0.282570 -5.089970
0.000000 0.000000 0.000000 0.000000 0.000000 -0.000000 -0.295199 92.970900 -0.873009 86.896900 -1.393890 0.579258 15.735700 0.000005 -0.000001 78.736400 86.916600 -76.367500 8.984550 -0.406207 -0.000000 -1.684760 -1.399500 4.716370 16.377300 -0.000001 -0.000001 3.924970 3.382610 0.728712 6.456720 -0.000001 -0.000000 1.189850 5.554740 -4.604190 12.994200 -0.242716 4.980390 -92.457200 7.921740 -72.705000 5.348090 -0.000007 -0.000001 -74.378200 29.745100 0.448722 24.328600 0.000019 0.000005 12.756100 27.774600 -25.911200 22.291600 -0.000001 0.000005 -3.167860 5.041900 6.415130 12.994500 -0.242716 -4.980390 88.982400 3.293900 -72.822000 -5.348130 -0.000001 -0.000004 -70.844800 9.973930 -0.800132 -24.328900 0.000322 -0.000009 4.084470 5.538420 -36.497400 -22.291500 -0.000108 -0.000004 1.777640 5.173830 3.367770 -2.192480 -6.469440 -0.000000 -176.691000 -1.464850 -3.337210 39.081100 -0.000007 -0.000012 0.197869 -0.551445 19.739300 40.985400 -0.000006 -0.000013 2.858540 8.805150 -71.282000 11.754300 -0.000000 0.000003 -0.000227 0.171358 -9.626420 -2.192510 6.469440 -0.000001 -175.475000 5.729300 -178.919000 -39.081100 -0.002282 -0.040193 0.026683 -0.105171 12.516600 -40.985400 0.000008 0.000006 -1.059830 4.456860 -68.258600 -11.754300 -0.000006 -0.000006 -0.012048 0.286019 -4.948730
